<svg width="95" height="31" viewBox="0 0 95 31" fill="none" xmlns="http://www.w3.org/2000/svg">
<path fill-rule="evenodd" clip-rule="evenodd" d="M32.2004 0.855465H44.4232L44.4304 5.73162L41.4217 5.72627L48.5548 22.5576L55.5698 5.74231H52.4751V0.869714L62.2552 0.864373L62.2409 3.64285L50.4711 31C47.6307 31.0071 45.7825 29.9823 44.7922 27.8383L35.098 5.74231L32.1986 5.73696L32.2004 0.855465ZM15.3892 0C23.8888 0 30.7784 6.90432 30.7784 15.4198C30.7784 23.9352 23.8888 30.8378 15.3892 30.8378C6.88959 30.8378 0 23.9352 0 15.4198C0 6.90432 6.88959 0 15.3892 0ZM15.3426 5.04547C20.7028 5.04547 25.0475 9.74162 25.0475 15.5338C25.0475 21.3278 20.7028 26.0222 15.3426 26.0222C9.98068 26.0222 5.63596 21.3278 5.63596 15.5338C5.63596 9.74162 9.98068 5.04547 15.3426 5.04547ZM79.6108 0C88.1104 0 95 6.90432 95 15.4198C95 23.9352 88.1104 30.8378 79.6108 30.8378C71.1112 30.8378 64.2216 23.9352 64.2216 15.4198C64.2216 6.90432 71.1112 0 79.6108 0ZM79.5642 5.04547C84.9244 5.04547 89.2691 9.74162 89.2691 15.5338C89.2691 21.3278 84.9244 26.0222 79.5642 26.0222C74.2023 26.0222 69.8576 21.3278 69.8576 15.5338C69.8576 9.74162 74.2023 5.04547 79.5642 5.04547Z" fill="#4C3494"/>
</svg>
