<svg width="290" height="128" viewBox="0 0 290 128" fill="none" xmlns="http://www.w3.org/2000/svg">
<path fill-rule="evenodd" clip-rule="evenodd" d="M87.3466 44.8617H128.498C131.232 44.8617 133.469 47.1076 133.469 49.8525V78.7575C133.469 81.5024 131.232 83.7483 128.498 83.7483H86.1451C83.4109 83.7483 81.1738 81.5024 81.1738 78.7575V43.0456C81.1738 41.7425 82.2371 40.8413 83.5214 40.6888L121.469 35.8228C122.767 35.8228 123.817 36.8903 123.817 38.1796V42.2277H84.9714C84.9714 43.919 85.4823 44.8478 87.3466 44.8478V44.8617ZM110.422 76.5394C106.956 77.2048 102.509 76.0542 100.092 73.434C99.0015 72.2556 100.755 70.4811 101.86 71.6595C103.49 73.4201 106.389 74.2381 108.751 74.1826C111.761 74.1133 114.454 71.3545 112.742 68.2768C110.367 64.0208 104.525 65.213 101.515 61.8581C99.0844 59.1548 100.231 54.8987 103.089 53.0133C106.072 51.0447 111.209 51.1279 113.653 53.9422C114.703 55.1483 112.949 56.9228 111.886 55.7167C109.911 53.4431 105.243 53.7481 103.462 56.091C100.921 59.432 104.719 61.2343 107.37 62.0383C111.016 63.1474 115.062 65.1715 115.725 69.372C116.249 72.7547 113.653 75.8878 110.422 76.5255V76.5394Z" fill="#EE4E2C"/>
<path fill-rule="evenodd" clip-rule="evenodd" d="M110.422 76.5394C106.955 77.2048 102.509 76.0542 100.092 73.434C99.0013 72.2556 100.755 70.4811 101.86 71.6595C103.489 73.4201 106.389 74.2381 108.751 74.1826C111.761 74.1133 114.454 71.3545 112.741 68.2769C110.366 64.0208 104.525 65.2131 101.515 61.8581C99.0842 59.1548 100.23 54.8988 103.089 53.0133C106.072 51.0447 111.209 51.1279 113.653 53.9422C114.702 55.1483 112.949 56.9367 111.885 55.7167C109.911 53.4431 105.243 53.7481 103.462 56.091C100.921 59.4321 104.718 61.2343 107.37 62.0384C111.015 63.1474 115.061 65.1715 115.724 69.3721C116.249 72.7547 113.653 75.8878 110.422 76.5255V76.5394Z" fill="#FEFEFE"/>
<path d="M181.305 43.0872C179.827 43.0872 178.515 43.711 177.604 44.7092V43.5585C177.604 42.5188 175.933 42.5188 175.933 43.5585V57.2C175.933 58.2398 177.604 58.2537 177.604 57.2V51.1279C178.515 52.1261 179.841 52.7499 181.305 52.7499C184.039 52.7499 186.262 50.5872 186.262 47.9255C186.262 45.2637 184.039 43.101 181.305 43.101V43.0872ZM181.305 50.9893C179.551 50.9893 178.142 49.6029 178.142 47.9116C178.142 46.3867 179.289 45.1112 180.794 44.8617C180.794 44.8617 180.808 44.8617 180.821 44.8617C180.973 44.834 181.139 44.8201 181.305 44.8201C182.589 44.8201 183.708 45.5826 184.205 46.6639V46.6778C184.37 47.0521 184.467 47.468 184.467 47.9116C184.467 49.6168 183.045 50.9893 181.305 50.9893ZM169.001 52.7361C166.267 52.7361 164.043 50.5734 164.043 47.9116C164.043 45.2499 166.267 43.0872 169.001 43.0872C171.735 43.0872 173.958 45.2499 173.958 47.9116C173.958 50.5734 171.735 52.7361 169.001 52.7361ZM169.001 44.834C167.261 44.834 165.838 46.2203 165.838 47.9116C165.838 49.6168 167.261 50.9893 169.001 50.9893C170.741 50.9893 172.163 49.6029 172.163 47.9116C172.163 46.2064 170.741 44.834 169.001 44.834ZM208.827 47.8146C208.785 45.5964 207.625 43.5863 205.209 43.1426C203.123 42.7545 200.693 43.8219 199.809 45.7212C198.884 47.6898 199.271 50.3932 201.093 51.7656C203.054 53.249 206.12 52.7915 208.136 51.6963C209.075 51.1834 208.233 49.7832 207.294 50.2961C206.023 50.9893 204.352 51.3359 202.916 50.8645C201.839 50.5179 201.245 49.6168 201.066 48.6048H207.998C208.44 48.6048 208.84 48.2305 208.827 47.7869V47.8146ZM201.121 46.9966C201.135 46.9412 201.149 46.8719 201.162 46.8164C201.563 45.4994 202.93 44.7231 204.311 44.6953C205.899 44.6537 206.783 45.7212 207.059 46.9966H201.107H201.121ZM197.724 47.8284C197.683 45.6103 196.523 43.6001 194.106 43.1565C192.021 42.7683 189.59 43.8358 188.707 45.7351C187.781 47.7037 188.168 50.407 189.991 51.7795C191.952 53.2629 195.017 52.8054 197.033 51.7102C197.973 51.1972 197.13 49.797 196.191 50.31C194.921 51.0031 193.25 51.3497 191.814 50.8784C190.736 50.5318 190.143 49.6307 189.963 48.6186H196.895C197.337 48.6186 197.738 48.2443 197.724 47.8007V47.8284ZM190.018 47.0105C190.032 46.9551 190.046 46.8857 190.06 46.8303C190.46 45.5133 191.827 44.7369 193.208 44.7092C194.796 44.6676 195.68 45.7351 195.956 47.0105H190.005H190.018ZM162.096 46.2619V51.9043C162.096 52.9717 160.425 52.9717 160.425 51.9043V46.3728C160.37 45.2776 159.445 44.7785 159.403 44.7646C158.216 44.2517 156.062 44.4874 154.777 46.1233V51.9043C154.777 52.9717 153.106 52.9717 153.106 51.9043V37.4171C153.106 36.3496 154.777 36.3635 154.777 37.4171V43.919C156.821 42.5465 159.417 42.699 160.646 43.5447C160.646 43.5447 162.11 44.3487 162.096 46.2619ZM150.386 38.0825C148.756 36.2803 145.318 36.2248 143.329 37.4864C141.424 38.6925 140.65 41.4236 142.28 43.1565C144.296 45.3053 148.19 44.5428 149.778 47.2739C150.924 49.2564 149.129 51.017 147.113 51.0586C145.539 51.0863 143.592 50.5595 142.501 49.4366C141.769 48.6741 140.595 49.8109 141.327 50.5734C142.943 52.2508 145.912 52.9995 148.218 52.5697C150.372 52.1677 152.112 50.1436 151.753 47.9809C151.311 45.2915 148.605 43.9883 146.174 43.2813C144.407 42.7683 141.866 41.6038 143.564 39.4689C144.752 37.9578 147.873 37.7637 149.198 39.2332C149.903 40.0095 151.076 38.8727 150.372 38.0964L150.386 38.0825Z" fill="#EE4E2C"/>
<path fill-rule="evenodd" clip-rule="evenodd" d="M193.857 92.1633H188.568L194.23 81.4193L184.922 63.7713H190.667L197.102 75.971L203.537 63.7713H208.826L193.857 92.1633ZM141.092 83.7483H145.538V75.6105H151.518C157.718 75.6105 162.758 71.2436 162.758 65.8508C162.758 60.4579 157.732 56.091 151.518 56.091H141.092C141.092 65.3101 141.092 74.5292 141.092 83.7622V83.7483ZM145.538 71.1466V60.5411H151.518C154.887 60.5411 157.621 62.9117 157.621 65.8508C157.621 68.7759 154.887 71.1604 151.518 71.1604H145.538V71.1466ZM179.385 63.9376H183.279V83.5819H179.385V81.3777C177.645 82.8611 175.394 83.7622 172.936 83.7622C167.44 83.7622 162.979 79.2843 162.979 73.7667C162.979 68.2491 167.44 63.7713 172.936 63.7713C175.394 63.7713 177.645 64.6724 179.385 66.1558V63.9515V63.9376ZM172.936 67.9719C176.112 67.9719 178.694 70.5643 178.694 73.7529C178.694 76.9414 176.112 79.5339 172.936 79.5339C169.76 79.5339 167.177 76.9414 167.177 73.7529C167.177 70.5643 169.76 67.9719 172.936 67.9719Z" fill="#EE4E2C"/>
</svg>
