<svg width="77" height="63" viewBox="0 0 77 63" fill="none" xmlns="http://www.w3.org/2000/svg">
<path d="M25.8571 52.8056C21.9651 57.9999 14.5993 59.0556 9.40505 55.1636C4.21081 51.2716 3.15513 43.9057 7.04712 38.7115L19.5753 21.9915L38.3853 36.0856L25.8571 52.8056Z" fill="#167FCA"/>
<path d="M13.1272 43.4273C12.3361 44.4831 10.8389 44.6977 9.78314 43.9066C8.72734 43.1155 8.51276 41.6183 9.30385 40.5625L21.8791 23.7796L25.7025 26.6444L13.1272 43.4273Z" fill="#C3C3C3" fill-opacity="0.57"/>
<path d="M69.579 40.0101C73.2517 45.3616 71.8907 52.6772 66.5392 56.3499V56.3499C61.1876 60.0226 53.872 58.6616 50.1993 53.3101L38.3771 36.0837L57.7568 22.7837L69.579 40.0101Z" fill="#094067"/>
<path d="M67.1015 41.9798C67.8515 43.0651 67.5796 44.553 66.4942 45.303V45.303C65.4089 46.053 63.921 45.7812 63.171 44.6958L51.2489 27.4428L55.1794 24.7268L67.1015 41.9798Z" fill="#C3C3C3" fill-opacity="0.57"/>
<path d="M37.4146 30.0077C34.1004 13.8816 40.888 9.61372 54.7672 3.0468C56.5104 15.9074 57.9279 23.2779 37.9121 30.3701L37.4146 30.0077Z" fill="#167FCA"/>
<path d="M37.1256 30.0335C23.5358 21.6717 17.6096 13.9893 20.5855 0C30.813 1.76598 38.6491 5.44086 38.6491 13.0581C35.6022 18.9342 35.1669 21.7634 37.1256 30.0335Z" fill="#094067"/>
<path d="M38.8667 27.2043C43.0743 22.2713 51.5765 11.6217 51.9248 8.48777" stroke="#E5E5E5" stroke-opacity="0.38"/>
<path d="M34.9495 23.9398C31.3499 18.6193 23.9599 7.07736 23.1972 3.4734" stroke="#E5E5E5" stroke-opacity="0.38"/>
<path d="M40.1726 23.2869C39.8824 22.2712 39.4762 20.0659 40.1726 19.3694" stroke="#E5E5E5" stroke-opacity="0.38"/>
<path d="M45.8311 20.8929C46.7741 20.7478 48.8344 20.1965 49.5308 19.1518" stroke="#E5E5E5" stroke-opacity="0.38"/>
<path d="M45.8308 15.2344C45.7583 13.9286 45.7873 11.0994 46.4837 10.2288" stroke="#E5E5E5" stroke-opacity="0.38"/>
<path d="M28.4242 15.7107C27.4055 15.9902 25.1961 16.3734 24.507 15.6697" stroke="#E5E5E5" stroke-opacity="0.38"/>
<path d="M32.9913 19.7776C33.6364 19.0745 34.8991 17.3557 34.7892 16.105" stroke="#E5E5E5" stroke-opacity="0.38"/>
<path d="M29.8455 5.50256C29.3525 6.71392 28.1162 9.2589 27.1143 9.74791" stroke="#E5E5E5" stroke-opacity="0.38"/>
</svg>
