<svg width="136" height="112" viewBox="0 0 136 112" fill="none" xmlns="http://www.w3.org/2000/svg">
<path d="M45.9681 93.8769C39.049 103.111 25.9541 104.988 16.7199 98.0687C7.4857 91.1496 5.60893 78.0548 12.528 68.8206L34.8003 39.0961L68.2403 64.1523L45.9681 93.8769Z" fill="#167FCA"/>
<path d="M23.337 77.2039C21.9306 79.0809 19.2689 79.4624 17.392 78.056C15.515 76.6496 15.1335 73.9879 16.5399 72.1109L38.8959 42.2746L45.693 47.3676L23.337 77.2039Z" fill="#C3C3C3" fill-opacity="0.57"/>
<path d="M123.687 71.1292C130.216 80.643 127.796 93.6485 118.282 100.178C108.769 106.707 95.763 104.287 89.2338 94.7736L68.2165 64.1489L102.669 40.5045L123.687 71.1292Z" fill="#094067"/>
<path d="M119.283 74.6309C120.616 76.5604 120.133 79.2055 118.203 80.5389C116.273 81.8722 113.628 81.3889 112.295 79.4594L91.1002 48.7873L98.0877 43.9589L119.283 74.6309Z" fill="#C3C3C3" fill-opacity="0.57"/>
<path d="M66.515 53.347C60.6231 24.6784 72.6901 17.091 97.3641 5.41647C100.463 28.2798 102.983 41.3829 67.3996 53.9913L66.515 53.347Z" fill="#167FCA"/>
<path d="M66.0014 53.393C41.8416 38.5276 31.3062 24.8699 36.5966 0C54.7789 3.13952 68.7097 9.67264 68.7097 23.2143C63.293 33.6608 62.5192 38.6906 66.0014 53.393Z" fill="#094067"/>
</svg>
