<svg width="156" height="45" viewBox="0 0 156 45" fill="none" xmlns="http://www.w3.org/2000/svg">
<g clip-path="url(#clip0_515_40)">
<path fill-rule="evenodd" clip-rule="evenodd" d="M20.569 0.0823702C13.0474 0.78612 6.95184 4.72612 3.24979 10.8078C0.84409 14.7595 -0.286742 19.4411 0.0619841 24.2457C0.915267 35.9999 11.1256 45.9515 24.1944 44.9269C35.9201 44.0074 45.5947 33.5719 44.6037 20.7369C44.2406 16.0378 42.5897 12.1649 39.9435 8.66779C38.7453 7.08445 38.509 7.05862 37.2577 5.76237C35.7061 4.15445 32.4248 2.30862 30.3308 1.49195C27.5229 0.396537 23.9476 -0.23388 20.569 0.0823702Z" fill="#108DE8"/>
<path fill-rule="evenodd" clip-rule="evenodd" d="M9.40089 15.9431C9.11576 16.7577 9.28549 25.8148 9.28549 27.4948C9.28549 29.3123 8.92286 29.8798 11.7969 30.8523C19.4065 33.4269 26.9416 24.6973 34.5083 29.0165C34.8591 29.2165 35.2862 29.6269 35.3864 28.964L35.3894 17.3127C35.3898 16.0594 35.5031 15.6669 34.6629 15.0881C27.8918 10.4215 20.5605 18.4035 13.69 17.5081C11.1475 17.1769 10.0945 15.8935 9.40089 15.9431Z" fill="white"/>
<path fill-rule="evenodd" clip-rule="evenodd" d="M61.6793 33.9044C64.6455 34.114 68.1008 31.8381 69.3184 30.5348C73.5473 26.0069 73.6492 19.4556 69.3921 14.7144C67.8068 12.949 64.0955 10.9977 61.7281 11.271L53.1789 11.2773L53.1768 33.876L61.6793 33.9044ZM57.9793 29.0077C58.609 29.116 61.1953 29.0756 61.9059 29.011C67.7462 28.4827 69.809 20.5827 64.8991 17.2735C64.0841 16.724 63.1774 16.286 61.9876 16.1552C61.336 16.0831 58.5529 16.0385 57.9764 16.1415L57.9793 29.0077Z" fill="#108DE8"/>
<path fill-rule="evenodd" clip-rule="evenodd" d="M136.559 33.9465L141.421 33.9444L141.427 29.0735L151.076 29.0752L151.104 33.9448L155.965 33.9456C155.968 31.239 155.966 28.554 155.966 25.8694C155.966 23.451 156.172 20.4235 155.568 18.2298C154.548 14.5169 150.979 11.224 146.283 11.2056C141.535 11.1873 138.089 14.4706 136.989 18.1298C136.338 20.2952 136.555 23.3998 136.555 25.7835C136.555 28.5002 136.527 31.2315 136.559 33.9465ZM141.426 24.1731L151.1 24.1773C151.123 22.0881 151.35 20.0577 150.402 18.4569C149.724 17.3119 148.294 16.1135 146.285 16.1052C144.236 16.0969 142.869 17.2473 142.138 18.4335C141.18 19.9894 141.396 22.1315 141.426 24.1731Z" fill="#108DE8"/>
<path fill-rule="evenodd" clip-rule="evenodd" d="M80.9373 33.941L85.7836 33.9452C85.7866 32.9285 85.6535 29.8123 85.8308 29.0735L95.4431 29.0748L95.4772 33.9419L100.33 33.9465C100.305 31.2477 100.328 28.5531 100.328 25.8694C100.328 23.5669 100.543 20.2681 99.9336 18.2269C97.1564 8.93063 84.2274 8.8648 81.358 18.134C80.7082 20.2331 80.9301 23.4456 80.9301 25.7835C80.9301 28.4815 80.8678 31.2523 80.9373 33.941ZM85.7866 24.1727L95.4726 24.1777C95.4928 22.119 95.7202 20.0502 94.7701 18.4527C93.0315 15.529 88.6101 15.1081 86.5068 18.4385C85.5453 19.961 85.755 22.1681 85.7866 24.1727Z" fill="#108DE8"/>
<path fill-rule="evenodd" clip-rule="evenodd" d="M108.86 20.0977L108.794 23.4735C108.794 26.304 108.651 31.584 108.804 33.8802L113.556 33.8827C113.667 32.2731 113.384 20.7869 113.686 20.421C113.687 18.189 116.039 16.1135 118.418 16.1048C119.88 16.0994 120.945 16.6877 121.721 17.386C122.327 17.9315 123.253 19.174 123.235 20.4327C123.458 20.5565 123.282 32.5377 123.352 33.8794L128.109 33.8827L128.071 20.1665C128.19 19.0919 127.536 17.4306 127.117 16.5873C123.595 9.50521 113.486 9.41146 109.864 16.4652C109.439 17.2923 108.76 18.9985 108.86 20.0977Z" fill="#108DE8"/>
<path fill-rule="evenodd" clip-rule="evenodd" d="M61.6791 33.9044L53.1766 33.876L53.1787 11.2773L61.728 11.271C61.5725 11.0556 58.0057 11.1844 57.5058 11.1844C56.2621 11.1844 54.2986 11.0685 53.1425 11.2027C53.0334 11.5627 52.9888 33.3677 53.1349 33.9552C53.9221 34.0556 59.4082 33.9781 61.1425 33.9823L61.6193 33.9327C61.6345 33.9285 61.6593 33.914 61.6791 33.9044Z" fill="#79BBE7"/>
<path fill-rule="evenodd" clip-rule="evenodd" d="M123.235 20.4327C123.286 22.2815 123.134 33.2973 123.308 33.9577L128.152 33.9785C128.279 33.449 128.201 24.8594 128.201 23.559C128.201 22.9373 128.369 20.4952 128.071 20.1665L128.109 33.8827L123.352 33.8794C123.282 32.5377 123.457 20.5565 123.235 20.4327Z" fill="#79BBE7"/>
<path fill-rule="evenodd" clip-rule="evenodd" d="M113.686 20.4211C113.385 20.7869 113.667 32.2731 113.556 33.8827L108.804 33.8802C108.651 31.584 108.794 26.304 108.794 23.4736L108.86 20.0977C108.59 20.214 108.71 26.2306 108.71 26.9815C108.71 28.0748 108.579 33.3336 108.768 33.9602L113.61 33.9777L113.686 20.4211Z" fill="#79BBE7"/>
</g>
<defs>
<clipPath id="clip0_515_40">
<rect width="156" height="45" fill="white"/>
</clipPath>
</defs>
</svg>
