<svg width="199" height="66" viewBox="0 0 199 66" fill="none" xmlns="http://www.w3.org/2000/svg">
<path d="M21.7079 12C33.6967 12 43.4158 21.4421 43.4158 33.0908C43.4158 44.7381 33.6967 54.1802 21.7079 54.1802C9.71912 54.1802 0 44.7381 0 33.0908C0 21.4421 9.71912 12 21.7079 12Z" fill="#00AED6"/>
<path fill-rule="evenodd" clip-rule="evenodd" d="M34.3709 32.4405C34.2057 29.7555 31.8527 27.6975 29.0887 27.8171H15.3765C14.8767 27.8171 14.4711 27.4239 14.4711 26.9386C14.4711 26.4533 14.8767 26.0601 15.3765 26.0601H29.269C29.1884 24.2412 27.9102 22.6794 26.1035 22.1941C22.053 21.4902 17.907 21.4902 13.8566 22.1941C11.5541 22.7427 9.83346 24.6042 9.51528 26.8863C8.88163 31.0231 8.88163 35.2272 9.51528 39.364C10.0001 41.7795 11.9748 43.6493 14.4711 44.0576C19.4925 44.6721 24.574 44.6721 29.5954 44.0576C31.8323 43.6163 33.5243 41.8304 33.7919 39.628C34.2508 37.2592 34.4447 34.8492 34.3709 32.4405ZM29.848 35.3922V36.1662C29.848 36.6515 29.4438 37.0447 28.944 37.0447C28.4441 37.0447 28.0386 36.6515 28.0386 36.1662V35.3922C27.7463 35.1447 27.5811 34.7846 27.5865 34.4079C27.5865 33.6806 28.1942 33.0908 28.944 33.0908C29.6923 33.0908 30.3 33.6806 30.3 34.4079C30.2959 34.7832 30.1321 35.1392 29.848 35.3922Z" fill="white"/>
<path d="M105.247 30.7179C105.277 27.0197 102.215 23.9979 98.4094 23.969C94.602 23.9401 91.4925 26.9138 91.4624 30.612C91.4324 34.3102 94.4941 37.3321 98.3001 37.3609C98.337 37.3609 98.3725 37.3609 98.4094 37.3609C102.02 37.5493 105.105 34.8574 105.299 31.3489C105.31 31.1386 105.311 30.9282 105.302 30.7179H105.247ZM84.7695 30.7179C84.7695 23.6872 90.486 18.3268 98.4094 18.3268C106.333 18.3268 112.049 23.7229 112.049 30.7179C112.049 37.7129 106.386 43.1255 98.4094 43.1255C90.4314 43.1255 84.7695 37.7294 84.7695 30.7179Z" fill="black"/>
<path d="M73.9158 32.0006C73.9158 34.9 70.8759 37.2729 67.0235 37.2729C63.4838 37.6208 60.3265 35.1145 59.9687 31.6775C59.9318 31.3297 59.9264 30.9791 59.9496 30.6299C59.9496 26.7983 62.8447 24.1615 67.2939 24.1615C70.9128 24.1615 73.9158 26.5701 73.9158 29.2936V32.0006ZM74.1862 18.309V21.086C71.9848 19.1435 69.0692 18.1481 66.1004 18.3268C59.0824 18.3901 53.4451 23.969 53.5093 30.788C53.5749 37.607 59.3173 43.0828 66.3352 43.0196C69.2249 43.1461 72.0381 42.0944 74.0961 40.1201V42.4931C74.0961 45.7087 71.2378 48.0637 67.4755 48.0637C64.6009 48.2658 61.7713 47.298 59.6601 45.3925L55.2642 49.5059C58.5608 52.6487 63.04 54.3383 67.6558 54.1802C75.362 54.1802 80.6442 49.154 80.6442 42.4573V18.309H74.1862Z" fill="black"/>
<path d="M116.028 19.0307H122.504V21.1039H122.594C124.718 19.2232 127.521 18.2375 130.392 18.3626C137.44 18.6197 142.939 24.3801 142.673 31.2279C142.422 37.7142 137.068 42.9165 130.392 43.1612C127.65 43.2217 124.973 42.3446 122.83 40.6824V52.4232H116.083L116.028 19.0307ZM129.342 24.1615C125.724 24.1615 122.776 26.6045 122.776 29.2592V32.2288C122.776 35.0581 125.687 37.3967 129.379 37.3967C133.14 37.585 136.346 34.7749 136.54 31.1207C136.734 27.4651 133.843 24.3498 130.081 24.1615C129.847 24.1505 129.612 24.1505 129.379 24.1615H129.342Z" fill="black"/>
<path d="M155.628 28.4508C160.059 27.8707 161.38 27.2548 161.38 26.0601C161.38 24.5134 159.697 23.5827 157.093 23.5827C154.285 23.3586 151.729 25.1568 151.069 27.8171L144.701 26.5344C145.605 21.7542 150.67 18.3447 156.911 18.3447C163.967 18.3447 168.344 21.8601 168.344 27.5545V42.4752H162.285V39.8741H162.193C160.137 42.1232 157.124 43.3166 154.035 43.1076C148.698 43.1076 144.991 40.2782 144.991 36.0782C144.991 31.8768 148.029 29.4696 155.628 28.4508ZM161.923 30.9282H161.833C161.235 31.7724 160.023 32.2645 156.676 32.8268C152.715 33.5472 151.249 34.3034 151.249 35.674C151.249 37.0447 152.425 37.7129 154.976 37.7129C158.865 37.7129 161.868 35.9545 161.868 33.7232L161.923 30.9282Z" fill="black"/>
<path d="M180.556 41.1568L169.395 19.0307H176.829L184.156 34.3556H184.263L191.5 19.0307H198.971L182.256 52.4232H174.822L180.556 41.1568Z" fill="black"/>
</svg>
