<svg width="1469" height="303" viewBox="0 0 1469 303" fill="none" xmlns="http://www.w3.org/2000/svg">
<path d="M-1.11092 116.643C25.2738 72.6601 106.187 -4.91036 218.762 36.6738C359.481 88.654 375.519 150.63 550.9 116.643C726.281 82.6563 787.328 -12.8073 981.851 2.68675C1176.37 18.1808 1236.9 116.643 1323.3 116.643C1392.42 116.643 1454.19 63.3303 1476.44 36.6738L1524.55 221.603V446.518L-132 493L-1.11092 116.643Z" fill="#A8A8A8" fill-opacity="0.36"/>
<path d="M19.3403 149.643C45.7251 105.66 126.638 28.0896 239.213 69.6738C379.932 121.654 395.97 183.63 571.351 149.643C746.732 115.656 807.779 20.1927 1002.3 35.6868C1196.82 51.1808 1257.35 149.643 1343.75 149.643C1412.87 149.643 1474.64 96.3303 1496.89 69.6738L1545 254.603V479.518L-111.549 526L19.3403 149.643Z" fill="url(#paint0_linear_1038_3)"/>
<path d="M-1.11092 116.643C25.2738 72.6601 106.187 -4.91036 218.762 36.6738C359.481 88.654 375.519 150.63 550.9 116.643C726.281 82.6563 787.328 -12.8073 981.851 2.68675C1176.37 18.1808 1236.9 116.643 1323.3 116.643C1392.42 116.643 1454.19 63.3303 1476.44 36.6738L1524.55 221.603V446.518L-132 493L-1.11092 116.643Z" stroke="#E5E5E5" stroke-opacity="0.38"/>
<path d="M19.3403 149.643C45.7251 105.66 126.638 28.0896 239.213 69.6738C379.932 121.654 395.97 183.63 571.351 149.643C746.732 115.656 807.779 20.1927 1002.3 35.6868C1196.82 51.1808 1257.35 149.643 1343.75 149.643C1412.87 149.643 1474.64 96.3303 1496.89 69.6738L1545 254.603V479.518L-111.549 526L19.3403 149.643Z" stroke="#E5E5E5" stroke-opacity="0.38"/>
<defs>
<linearGradient id="paint0_linear_1038_3" x1="494.783" y1="-7.79659" x2="703.869" y2="530.989" gradientUnits="userSpaceOnUse">
<stop stop-color="#167FCA"/>
<stop offset="1" stop-color="#094067"/>
</linearGradient>
</defs>
</svg>
