<svg width="34" height="41" viewBox="0 0 34 41" fill="none" xmlns="http://www.w3.org/2000/svg">
<rect x="0.5" y="6.5" width="14" height="34" stroke="white"/>
<rect x="10.5" y="18.5" width="4" height="4" stroke="white"/>
<rect x="3.5" y="18.5" width="4" height="4" stroke="white"/>
<rect x="10.5" y="25.5" width="4" height="4" stroke="white"/>
<rect x="3.5" y="25.5" width="4" height="4" stroke="white"/>
<rect x="10.5" y="32.5" width="4" height="4" stroke="white"/>
<rect x="3.5" y="32.5" width="4" height="4" stroke="white"/>
<rect x="10.5" y="11.5" width="4" height="4" stroke="white"/>
<rect x="14.5" y="0.5" width="19" height="40" stroke="white"/>
<rect x="3.5" y="11.5" width="4" height="4" stroke="white"/>
<rect x="25.5" y="10.5" width="4" height="4" stroke="white"/>
<rect x="18.5" y="10.5" width="4" height="4" stroke="white"/>
<rect x="25.5" y="17.5" width="4" height="4" stroke="white"/>
<rect x="18.5" y="17.5" width="4" height="4" stroke="white"/>
<rect x="25.5" y="24.5" width="4" height="4" stroke="white"/>
<rect x="18.5" y="24.5" width="4" height="4" stroke="white"/>
<rect x="25.5" y="32.5" width="4" height="4" stroke="white"/>
<rect x="18.5" y="32.5" width="4" height="4" stroke="white"/>
<rect x="25.5" y="3.5" width="4" height="4" stroke="white"/>
<rect x="18.5" y="3.5" width="4" height="4" stroke="white"/>
</svg>
