<svg width="167" height="167" viewBox="0 0 167 167" fill="none" xmlns="http://www.w3.org/2000/svg">
<circle cx="83.5" cy="83.5" r="82.5" fill="#094067" stroke="white" stroke-width="2"/>
<path d="M41.5 135C41.5 135 33 135 33 126.5C33 118 41.5 92.5 84 92.5C126.5 92.5 135 118 135 126.5C135 135 126.5 135 126.5 135H41.5ZM84 84C90.763 84 97.249 81.3134 102.031 76.5312C106.813 71.749 109.5 65.263 109.5 58.5C109.5 51.737 106.813 45.251 102.031 40.4688C97.249 35.6866 90.763 33 84 33C77.237 33 70.751 35.6866 65.9688 40.4688C61.1866 45.251 58.5 51.737 58.5 58.5C58.5 65.263 61.1866 71.749 65.9688 76.5312C70.751 81.3134 77.237 84 84 84Z" fill="#D9D9D9"/>
</svg>
