<svg width="49" height="49" viewBox="0 0 49 49" fill="none" xmlns="http://www.w3.org/2000/svg">
<g clip-path="url(#clip0_473_8)">
<path d="M33.6875 18.375C33.6875 20.8117 32.7195 23.1486 30.9965 24.8715C29.2736 26.5945 26.9367 27.5625 24.5 27.5625C22.0633 27.5625 19.7264 26.5945 18.0035 24.8715C16.2805 23.1486 15.3125 20.8117 15.3125 18.375C15.3125 15.9383 16.2805 13.6014 18.0035 11.8785C19.7264 10.1555 22.0633 9.1875 24.5 9.1875C26.9367 9.1875 29.2736 10.1555 30.9965 11.8785C32.7195 13.6014 33.6875 15.9383 33.6875 18.375Z" fill="black"/>
<path fill-rule="evenodd" clip-rule="evenodd" d="M0 24.5C0 18.0022 2.58124 11.7705 7.17588 7.17588C11.7705 2.58124 18.0022 0 24.5 0C30.9978 0 37.2295 2.58124 41.8241 7.17588C46.4188 11.7705 49 18.0022 49 24.5C49 30.9978 46.4188 37.2295 41.8241 41.8241C37.2295 46.4188 30.9978 49 24.5 49C18.0022 49 11.7705 46.4188 7.17588 41.8241C2.58124 37.2295 0 30.9978 0 24.5ZM24.5 3.0625C20.4629 3.06272 16.508 4.20286 13.0904 6.35171C9.67272 8.50056 6.9313 11.5708 5.18164 15.209C3.43198 18.8472 2.74518 22.9055 3.20031 26.9168C3.65543 30.9281 5.23397 34.7294 7.75425 37.8831C9.92863 34.3796 14.7153 30.625 24.5 30.625C34.2847 30.625 39.0683 34.3766 41.2458 37.8831C43.766 34.7294 45.3446 30.9281 45.7997 26.9168C46.2548 22.9055 45.568 18.8472 43.8184 15.209C42.0687 11.5708 39.3273 8.50056 35.9096 6.35171C32.492 4.20286 28.5371 3.06272 24.5 3.0625Z" fill="black"/>
</g>
<defs>
<clipPath id="clip0_473_8">
<rect width="49" height="49" fill="white"/>
</clipPath>
</defs>
</svg>
